<svg width="288" height="400" viewBox="0 0 216 300" xmlns="http://www.w3.org/2000/svg"><g fill="#333"><path d="M31.67 119.76c.04-.59.13-1.77.17-2.36 2.38.8 4.86 1.15 7.37 1.13 6.86 4.75 9.16 13.82 8.28 21.75-1.17-1.93-1.18-4.19-1.34-6.37-1.22-5.69-3.39-13.04-10.01-14.27-1.49.06-2.98.09-4.47.12z"/><path d="M18 138.62c1.26-7.84 4.33-16.57 11.93-20.32.51.57 1.01 1.15 1.52 1.73-7.4 2.77-10.11 10.9-11.8 17.89-1.56 8.61-1.31 18.33 3.61 25.86 1.48 2.68 4.61 3.33 7.39 3.73-6.5-6.36-7.59-15.93-7.16-24.56.48-7.26 2.64-14.58 7.2-20.34.64-1.11 2.03-1.04 3.11-1.26-5.1 6.46-8.76 14.34-8.58 22.72-.58 7.18.42 14.96 5.42 20.52l.04 2.26c4.21.66 8.16-1.43 10.21-5.09 3.17-4.09 4.09-9.26 5.94-13.97-3.64-.19-7.26-.54-10.87-1.04-.44-.9-.87-1.8-1.29-2.7.48-1.26.97-2.52 1.46-3.78 5.3.34 10.68.5 15.84 1.89 1.77.12 3.54.21 5.31.31 1.17-.97 2-2.77 3.72-2.78 3.76-.23 7.73-.67 11.33.74.17-4.98.49-10.92 4.97-14.06 4.15-1.77 9.09-2.58 13.37-.77 2.91 1.8 6.09 4.5 5.82 8.28.41 2.73-.6 5.36-.72 8.06.68 1.99 1.65 3.95 3.15 5.46 7.73.07 15.38 1.28 23.09 1.72 3.87.56 8.09-.13 11.63 1.86-9.37.95-18.65-1.49-28-1.7 3.75 2.64 8.49 2.47 12.57 4.3 4.04.64 8.22.1 12.27.88.31-.31.93-.94 1.24-1.25.17 1.52.22 3.07.62 4.56 2.21 2.34 5.77 4.37 5.12 8.16-.78 6.76-6.53 11.11-11.69 14.75 1.25-1.76 2.62-3.44 3.97-5.13-2.1-2.96-4.79-5.46-7.79-7.51-2.76-1.82-6.14-2.08-9.18-3.21 2.6-.21 5.2-.03 7.79.15-.02-3.79-.98-7.89-3.98-10.45-3.16-1.38-6.76-1.55-9.7-3.47-2.75-1.72-6.04-1.81-9.13-2.42-1.19-2.23-2.74-4.34-3.3-6.84.34-3.17 1.56-6.45.46-9.6-1.58-3.79-5.52-7.1-9.83-6.34-2.4.46-4.99.76-7.1 2.06-2.32 3.18-3.63 7.13-3.89 11.05.1 4.17 1.15 8.25 1.41 12.41 3.31.41 6.92.84 9.93-.92 2.2-1.43 3.99-3.44 6.37-4.61-1.01 4.46-5.83 5.83-8.96 8.5-1.58.21-3.09.76-4.62 1.18-2.51 3.02-5.39 6.06-5.12 10.31l-1.49-.17c.51-4.84 2.12-10.22 6.84-12.54-2.19-.76-4.59-1.89-5.46-4.22-.58-1.93-.53-3.97-.63-5.96-3.12-1.68-6.8-1.66-10.24-1.45-1.75.2-2.37 2.46-4.08 2.79-7.06.47-13.87-2.28-20.93-1.99l-.83.68-.16 1.58c7.13 1.73 14.61 1.32 21.81 2.69-.1 2.2-.49 4.48.45 6.57 1.86 5.15 1.38 10.74 1.26 16.11-.22 3.53 1.44 6.74 2.73 9.92 1.65 3.76 5.19 6.08 7.86 9.04 3.62-1.55 6.52-4.21 9.45-6.75-1.93-1.8-3.95-3.62-5.16-6.01-.7-2.66-.34-5.44-.43-8.15 1.8-1.84 3.12-4.34 5.63-5.33-.86 2.19-2.08 4.22-3.58 6.05.09 2.4-.32 4.89.38 7.23 1.07 2.21 3.02 3.79 4.58 5.64.54-.67 1.07-1.34 1.6-2.01 1.21.14 2.33.62 3.45 1.07-1.26.69-2.52 1.39-3.76 2.12 1.1 1.79.69 3.89 1.09 5.84 1.46 2.07 3.8 3.22 5.57 4.96 2.14 4.14 6.11 6.8 9.65 9.61 7.3.29 15.71-.41 20.9-6.24.44-3.45.04-6.95-1.04-10.25-2.87-3.41-5.99-6.83-7.04-11.3-.87-.39-1.75-.78-2.62-1.18.64-1.49 1.33-2.94 2.04-4.39 2.35 5.09 3.72 11.18 8.59 14.56 4.69 2.77 7.38 7.9 12.69 9.77 1.35-1.01 2.58-2.17 3.45-3.63 2.63-4.19 6.06-7.94 7.78-12.64 1.87-5.22 3.78-10.68 3.31-16.31.22.03.66.09.89.11.21-2.33-.05-4.66-.55-6.94.65.9 1.3 1.8 1.95 2.71 4.26.15 8.54.32 12.73 1.18-1.36-8.63 1.35-18.05 7.78-24.1 3.53-3.28 8.62-2.69 12.94-1.76 3.33 1.47 5.27 4.81 6.63 8.03 2.15 5.24 3.17 10.91 3.35 16.57 4.35.37 8.65 1.39 13.04 1.33 1.62 2.37 1.06 4.91-.32 7.23-4.51-.89-9.09-1.34-13.66-1.83-.91 7.15-3.49 14.66-9.05 19.52-3.49 3.12-8.45 1.68-12.65 1.68-5.4-3.12-7.62-9.46-8.89-15.22-.84-3.26-.35-6.64.46-9.85-4.1-.12-8.19-.46-12.28-.63.03 8.19-1.66 16.52-6.2 23.45-2.13 2.84-4.6 5.42-6.37 8.52-1.04 1.94-2.83 3.24-4.65 4.37-4.79-1.35-8.24-5.02-11.57-8.47 1.85 4.17.75 8.91 3.03 12.91 1.74 1.3 3.98 2.41 4.57 4.7 1.05 3.56 1.72 7.24 2.14 10.94.42 3.69-1.48 7.08-2.77 10.41-2.48 3.21-6.08 5.67-10.03 6.64-1.11.51-1.97-.7-2.87-1.04-1.36.32-2.73.64-4.05 1.08 4.72 4.49 8.34 10.31 8.98 16.92.84 5.02.74 10.18 2.16 15.1.99 3.43 3.43 6.36 3.89 9.94-.08 4.27-3.65 7.1-6.52 9.75-2.54 2.19-4.22 5.28-6.97 7.21-6.63 2.7-14.44 1.49-20.18-2.7 1.66-7 9.5-9.11 12.57-15.14 1.25-2.3 3.54-4.37 3.16-7.21-.76-8.37-6.67-15.05-8.67-23.05-.74-3.06-3.78-4.78-4.79-7.71-1.03-3.13-1.86-6.32-2.84-9.46-.48-.17-1.45-.52-1.93-.69-1.35 1.13-2.68 2.29-4.03 3.42-4.02-1.17-8.03-.34-12.05.27 3.66 3.48 7.05 7.46 8.59 12.36 1.78 5.98 3.42 12.14 6.54 17.58 2.78 3.07 5.64 6.25 6.14 10.57-.55 1.17-1.01 2.38-1.71 3.46-2.91 2.07-6.84 1.23-9.8 3.17-2.07 1.27-3.21 3.56-5.14 5-2.46 1.05-5.09 1.61-7.7 2.12-2.82-.42-5.58-1.19-8.39-1.72-.36-1.13-.72-2.25-1.07-3.38.46-.91.93-1.81 1.42-2.69 4.46-3.34 6.92-8.49 11-12.15.55-7.29-5.11-12.68-8.25-18.66-2.74-6.01-7.48-10.84-10.16-16.88-.98-3.1-1.52-7.19 1.29-9.53 4.72-3.85 8.15-8.99 13.08-12.62.38.17 1.13.49 1.51.65 0-.56 0-1.67.01-2.22 1.34.8 2.64 1.75 4.17 2.18 4.49 1.53 7.52 5.42 10.27 9.05l2.32 1c-.49.2-1.49.59-1.99.79.4 3.63 1.19 7.81-2.03 10.64 1.92-1.58 3.82-3.18 5.7-4.81.63-.08 1.88-.25 2.51-.34 1.1-4.47 3.01-9.22 7.25-11.58 4.87-3.5 12.03-1.53 15.67 2.88 3.67 3.88 9.11 8.23 7.55 14.27 1.45-1.48 3.59-2.6 3.93-4.84.75-3.01 2.68-5.88 1.96-9.1-.69-3.58-1.25-7.19-2.13-10.72-1.07-1.3-2.55-2.15-3.87-3.15-.18-.81-.53-2.44-.71-3.25-1.95 1.48-3.03 3.53-3.67 5.84-2.1 1.27-4.48 2.04-6.78 2.87 2.16-1.99 4.58-3.61 7.26-4.87-3.54 1.1-7.04 2.52-10.75 2.93-5.14.84-10.15-1.09-15.15-2-.72.85-1.47 1.65-2.27 2.42-5.04.37-9.99 1.57-15.07 1.38.08-.96.17-1.91.26-2.85 4.54 1.68 9.05-.34 13.64-.4.84-1.06 1.76-2.07 2.57-3.16-1.38-1.39-2.66-2.87-3.74-4.5-1.48-2.44-4.32-3.7-5.69-6.21-.58-2.31-.49-4.72-1.03-7.04-2.48 4.37-6.32 8.35-11.7 8.45-3.4-2.1-5.44-5.79-7.64-9.02-3.56-6.63-3.03-14.39-3.91-21.63-.01-1.59-.6-3.04-1.74-4.14-.98-2.28-.66-4.74 0-7.05-2.87-.21-5.74-.4-8.61-.63-.41 7.08-3.15 14.49-8.75 19.09-3.26 2.78-7.79 1.76-11.7 2.18-8.4-5.08-9.59-16.14-9.26-25.05-2.56-.03-5.14-.25-7.63-.91-1.44.72-2.88 1.46-4.37 2.09-1.74-3.23-.93-6.7.18-9.97 3.37 2.81 8.47 1.36 12.45 2.98m148.74 2.28c-5.12 8.74-5.75 19.49-4.02 29.28 1.01 5.05 3.18 10.81 8.28 12.95 3.77.22 8.19.89 11.27-1.85 5.23-4.38 6.14-11.51 8.62-17.47-4.12-.29-8.21-.92-12.26-1.68-.19-2.44.38-4.79 1.52-6.95 3.92.47 7.79 1.25 11.65 2.08-2.04-8.23-2.16-19.04-10.78-23.47-2.06.05-4.11-.14-6.16-.3-3.13 1.94-6.37 4.04-8.12 7.41m-161.04.38c3.88.81 7.84 1.15 11.79 1.48.06-.78.18-2.35.25-3.14-3.93.79-9.45-2.42-12.04 1.66m113.89 13.77c2.35 3.14 3.37 7 3.79 10.85 2.84 2.53 5.9 4.94 7.82 8.3 2.17-2.89 4.83-6.26 3.96-10.12-.86-1.23-2.05-2.15-3.14-3.15a14.33 14.33 0 01-2.1-4.94c-3.39-.8-6.86-.96-10.33-.94m59.97 4.95c7.28 1.41 14.69 2.1 21.98 3.5.11-.77.34-2.3.46-3.07-7.05-.92-14.17-1.46-21.13-2.96-.33.63-.98 1.9-1.31 2.53M67.48 209.32c-3.29 2.43-5.29 6.17-8.51 8.7-3.45 2.49-4.75 7.66-2.52 11.36 1.77 2.9 3.62 5.76 5.66 8.48 2.55 3.38 3.38 7.71 5.91 11.1 2.59 3.51 5.44 6.94 7.06 11.03.12 1.65.41 3.78-1 4.98-3.08 3-5.76 6.4-9.13 9.09-1.6 1.18-2.6 2.9-3.5 4.64.4.65 1.19 1.95 1.59 2.6 3.9 1.3 8.13 1.03 11.8-.83 1.94-1.26 3.33-3.2 5.32-4.38 3.77-1.97 8.12-2.37 11.91-4.3.58-6.38-5.78-9.69-7.66-15.16-1.51-4.25-3.57-8.3-4.61-12.71-1.12-5.31-5.21-9.2-7.57-13.94 3.01-1.65 6.26-2.79 9.65-3.32 2.95-2.62 1.18-6.51.44-9.74-1.24-4.23-5.24-6.41-8.49-8.91-2.15.14-4.5-.01-6.35 1.31m35.27 1.71c-3.45 2.4-7.89 4.9-7.69 9.76-1.12 1.63-2.68 3.16-2.97 5.2.04 3.75 3.48 6.16 4.32 9.68.72 2.58 3.61 3.71 4.36 6.25 1.29 4.76 3.71 9.07 5.54 13.61 1.14-.3 2.27-.61 3.42-.87l-1.23.44c.52 4.15 2.01 8.36.84 12.55.45.06 1.35.2 1.8.27-3.1 3.19-4.82 7.32-7.17 11.02-3.96 2.83-8.04 5.75-10.37 10.17 1.84.67 3.7 1.3 5.59 1.8 5.31 1.8 11.85-.01 15.15-4.64 2.81-3.4 6.71-5.68 9.48-9.13a20.35 20.35 0 00-1.48-6.21c-.84 1.21-1.67 2.44-2.47 3.68.55-6.96-1.76-13.69-2.1-20.61-.66-8.35-5.67-15.25-9.95-22.11 4.55-.65 9.16-1.98 12.32-5.53-1.78-5.26-5.65-9.3-9.54-13.09-2.13-1.93-5.12-2.18-7.85-2.24z"/><path d="M169.89 143.95c1.57-3.49 3.22-7.63 7.17-8.97-1.23 3.49-4.3 5.93-5.6 9.4-3.44 8.34-3.78 17.77-2.08 26.55.67 4.12 3.06 7.6 4.71 11.35-1.8-.93-3.4-2.31-4.13-4.25-4.78-10.74-3.97-23.2-.07-34.08zM133.47 153.42c.6-2.6 1.47-5.48 4.21-6.53 4.64 2.16 12.32-.34 14.03 6.09 2.84.28 5.78.4 8.38 1.71-2.77.95-5.69.43-8.48-.09-.73.53-1.46 1.06-2.19 1.6-.72-1.94-.05-5.17-2.52-5.94-3.2-.59-6.46-.72-9.68-1.2-1.25 1.46-2.43 2.97-3.75 4.36zM67.4 155.38c1.47-2.19 3.3-4.1 4.89-6.2 2.26 3.27-3.23 4.77-3.28 7.78-.59 3.63.82 7.03 2.05 10.35-3.18-3.06-4.36-7.66-3.66-11.93zM83.99 154.86c.81-.46 1.64-.89 2.47-1.3.87 1.22 1.72 2.46 2.52 3.73-1.7-.72-3.33-1.61-4.99-2.43zM90.42 159.66c5.48.03 9.85-3.55 15.04-4.57-3.68 3.86-9.25 5.08-14.39 5.69-1.07.84-2.14 1.67-3.26 2.45.8-1.24 1.7-2.41 2.61-3.57zM79 158.24c3.07.34 6.12 1.68 7.23 4.78-2.78-.94-5.14-2.77-7.23-4.78zM101.56 160.8c2.41 1.79 4.91 3.44 7.85 4.21-3.39 1.01-6.69-.92-7.85-4.21zM69.46 180.14c-1.69-5.18-.13-11.61 4.48-14.67-.53 3.4-2.88 6.19-3.25 9.61-.2 1.73-.5 3.46-1.23 5.06zM108.21 175.2c.45.73.89 1.46 1.32 2.21-4.54 6.16-13.8 7.5-20.11 3.47 4.15-.06 8.4.8 12.46-.49 2.53-1.12 4.54-3.12 6.33-5.19zM86.74 184.91c3.42.26 7.47-1.56 10.35.95 2.15 1.95 4.82 3.5 6.18 6.16-3.35-1.2-5.87-3.78-8.28-6.29-3.59-.45-6.95.79-10.13 2.3.61-1.05 1.25-2.09 1.88-3.12zM102.86 192.47c1.71.84 3.36 2.04 5.33 2.17 1.61-.38 3.14-1.05 4.73-1.52-1.07.81-2.22 1.52-3.39 2.18-2.31 1.27-4.75 3.67-7.59 2.57-3.02-1.02-6.21-1.14-9.31-1.78 2.08-.28 4.16-.53 6.23-.82 1.97.6 3.96 1.17 6.03 1.27-.64-1.38-1.32-2.73-2.03-4.07zM67.76 223.97c4.07-2.9 4-8.45 7.06-12.15-1.01 4.42-1.28 9.75-5.23 12.69-3.53 1.87-8.51.27-9.61-3.8 2.42 1.48 4.87 3.05 7.78 3.26zM98.75 217.57c2.46.71 5.02 2.11 5.65 4.82-2.11-1.33-3.87-3.1-5.65-4.82zM74.31 226.21c1.13-3.03 2.77-6.07 5.87-7.45-1.33 2.92-3.56 5.27-5.87 7.45zM104.38 230.97c2.12-5.77 8.89-4.13 13.48-6.03-1.29 1.99-3.47 2.81-5.73 3.01-2.88.12-5.2 1.92-7.75 3.02zM64.97 233.46c-2.83-.66-2.89-3.79-1.71-5.88.74 1.91 1.3 3.88 1.71 5.88zM100.25 227.82c1.33 2.35 1.99 4.99 2.79 7.55-1.04-.52-2.07-1.04-3.11-1.55-.1-2.01-.03-4.02.32-6zM69.76 237.24c2.62 2.9 2.9 6.94 4.69 10.28 1.63 3.34 4.57 5.77 6.57 8.86-3.31-1.75-5.23-5.06-7.28-8.04-2.3-3.25-3.71-7.12-3.98-11.1zM107.37 240.58c.3-.1.91-.28 1.22-.37 1.59 4.15 3.56 8.17 4.68 12.48-2.03-4.01-3.73-8.18-5.9-12.11zM101.93 240.88c3.32 3.64 4.48 8.57 6.31 13.01-.96-.64-2.25-1.05-2.53-2.32-1.16-3.6-2.97-6.98-3.78-10.69zM84.24 261.44c1.11 1.03 2.15 2.12 3.2 3.21-.3 2.07-.65 4.13-.91 6.21l-1.64-.8c.95-2.95.61-5.85-.65-8.62zM76.14 271.71c.89-3.31 2.04-6.56 3.38-9.72 1.39 3.72-1.67 6.74-3.38 9.72zM111.2 281.43c-.15-3.37 1.1-6.57 2.84-9.4-.5 3.24-1.37 6.46-2.84 9.4z"/></g></svg>