<svg width="288" height="400" viewBox="0 0 216 300" xmlns="http://www.w3.org/2000/svg"><g fill="#333"><path d="M88.3 109.38c4.07-5.85 12.13-7.36 18.62-5.19 5.61 2.72 6.99 10.29 4.88 15.71-.3 2.68-.22 5.39-.11 8.08 1.73 3.19 2.98 7.42 6.85 8.58 3.35 1.26 6.04 3.71 9.23 5.28l-3.05-.4c.05.41.14 1.21.18 1.61 2.04-.73 4.03.2 6 .61 8.58 1.7 17.52 1.31 25.96 3.76 1.53-7.29 4.72-14.98 11.24-19.11 3.68-2.56 8.18-1.14 12.21-.51 3.42 1.89 5.61 5.49 6.7 9.16 1.24 4.57 2.79 9.36 1.38 14.08 3.18.19 6.35.72 9.54.78.18.45.53 1.36.71 1.82-7.03.02-13.91-1.51-20.88-2.1-.71.42-2.11 1.25-2.81 1.67 7.43 2.64 15.52 1.97 23.14 3.82l.76-3.13c.84 1.08 1.66 2.18 2.52 3.25-.41-1.32-.99-2.61-1.17-3.98.65-.21 1.96-.64 2.62-.85 1.51 2.51.58 5.27-1.38 7.14-4.37-1.78-9.18-.94-13.69-2.1v2.32c-2.78 7.1-5.85 15.81-13.83 18.42-4.21.16-9.55 1.27-12.58-2.52-5.26-5.98-5.79-14.5-5.54-22.09-15.85-2.26-31.76-4.03-47.62-6.13.18.57.55 1.71.73 2.28-.76.08-2.29.23-3.05.31-4.92-3.63-10.82-.83-16.19-.3-2.56 1.91-5.24 3.65-8 5.27 4.48 2.91 8.72 6.17 12.98 9.38 2.64 1.85 6.16 2.93 9.32 1.85 4.75-1.03 9.68-1.02 14.44-2.04 4.62-1.63 7.17-6.16 10.99-8.96l-.12 1.98c-2.96 3.01-5.55 6.46-9.25 8.64 2.13 2.94 1.7 6.57 1.55 9.98-.62 1.27-2.1 1.69-3.21 2.41 1.27-3.74 1.7-7.98.11-11.69a69.87 69.87 0 01-14.5 1.24c-3.96.97-8.41.74-11.75-1.83-4.11-3.39-7.85-7.22-12.36-10.11.22 2.12.37 4.27.33 6.41 2.63 1.82 3.66 4.64 3.89 7.74 1.12 2.81-1.7 5.22-1.17 8.08-.55 4.57 3.22 7.57 5.34 11.11.32 1.87.63 3.74 1.01 5.61.43 1.28.83 2.57 1.2 3.88.33.07 1 .2 1.33.26 2.17 1.62 4.5 3.02 6.75 4.52 7.46-.41 16.74.04 21.54-6.85.74.73 1.5 1.45 2.27 2.16-.54-3.9-.67-7.86-1.52-11.71-.5.13-1.48.41-1.98.54.18-.46.52-1.4.69-1.87 3.24-.26 4.2-3.35 5.25-5.92 1.52-4.29 4.71-7.8 5.78-12.28 1.08-5.36 1.91-10.82 1.64-16.29 1.86-.82 2.18 1.52 1.99 2.83.01 7-2.71 13.63-5.07 20.11-1.94 4.05-2.97 8.58-5.67 12.25-.67 4.7 1.52 9.36.33 13.99 5.06 4.43 6.2 11.35 6.32 17.74-.17 2.28-1.3 4.34-1.98 6.5-1.1 3.6-4.75 5.34-7.49 7.53-3.36 1.97-6.92-.98-10.22.96 2.02 2.8 5.1 4.85 6.25 8.26 3.88 7.1 2.69 15.49 4.64 23.12.91 3.68 3.53 6.78 4.09 10.56-.08 4.3-3.67 7.16-6.56 9.82-2.54 2.19-4.2 5.31-6.97 7.21-6.62 2.67-14.43 1.47-20.16-2.7 1.38-5.64 6.71-8.34 10.48-12.15 2.24-3.69 6.23-7.27 5.08-11.99-1.92-8.19-7.08-15.11-9.28-23.18-4.06-4.1-5.45-9.73-7.13-15.06-3.52.55-6.99 1.4-10.53 1.89 3.54 3.5 6.88 7.42 8.41 12.25 1.65 5.79 3.39 11.64 6.15 17.02 2.68 3.57 7.04 6.96 6.07 12-.54 3.98-5.18 3.95-8.21 4.63-3.66.5-5.42 3.99-7.99 6.14-2.47 1.07-5.14 1.61-7.77 2.13-2.79-.46-5.58-1.01-8.28-1.83-1.13-1.82-.31-3.97 0-5.89 4.68-3.18 7.26-8.37 11.13-12.34.97-7.8-5.95-13.28-8.74-19.91-3.2-6.8-10.08-12.19-10.25-20.13-.46-4.52 4.44-6.39 6.82-9.4 2.53-3.38 5.65-6.37 9.47-8.22 3.81-1.28 8.67-.09 11.71-3.1-.43-3.29-1.58-6.43-1.93-9.74.17-4.14-2.65-7.44-5.3-10.28-.29-1.74-.59-3.48-.68-5.24-.05-2.7 1.59-5.34.63-8.02-.85-2.07-2.53-3.74-3.02-5.96-.51-2.1.62-4.17.96-6.19-5.13 1.59-9.88 4.71-15.42 4.7-4.58.74-9.25.87-13.57-1.09-.38-2.02-1.44-4.23-.43-6.22 1.34-3 2.85-5.92 4.16-8.93 1.72-1.55 3.45-3.08 5.21-4.58-3.8-.14-7.6-.37-11.34-1.13-1.73 4.89-4.02 9.57-6.44 14.15-2.14 3.69-6.35 5.81-10.6 5.23-3.94.77-7.12-2.45-8.43-5.83-2.59-5.45-2.38-11.61-2.1-17.48-3.27-.03-6.54-.31-9.8-.5-.25-.47-.74-1.43-.99-1.9 3.67.35 7.36.57 10.96 1.36.02-.73.05-2.2.06-2.93-3.53-.26-7.03-.73-10.54-1.19.08-.45.23-1.35.31-1.8 3.55.59 7.1 1.19 10.7 1.43 1.51-6.18 3.72-12.9 9.14-16.74 3.35-2.52 8-2.13 11.6-.39 6.04 4.7 6.67 13.38 6.26 20.45 9.38 1.33 18.86 2.2 28.19 3.86-2.14.56-4.34 1.31-6.57.88-7.61-1.24-15.32-1.78-22.92-3.11-2.95-.43-5.94-1.03-8.93-.68-2.25 1.25.61 2.73 1.99 2.56 6.33.85 12.69 1.46 19.03 2.24 4.06.51 7.7 3.1 11.9 2.79 4.56-1.87 8.74-6.21 14.13-4.51 3.14 1.16 7.82 1.13 9.38-2.29-2.36-2.1-5.76-3.41-6.83-6.64-1.83-3.05.62-6.4-.18-9.62-.66-3.17-.71-6.54.85-9.48m1.26 1.78c-1.2 6.52-1.44 13.34.4 19.78.78 1.34 2.39 1.78 3.63 2.56 2.29-1 4.76-1.66 6.87-3.04 2-1.64 3.51-3.81 5.73-5.19-1.19 4.52-4.63 8.83-9.56 9.27-.25 1.41-.84 2.7-1.67 3.86-.94.17-2.81.5-3.75.67 2.39 1.34 5.16 1.43 7.77 2.02 3.69 1.51 4.08 6.92 8.6 7.03l-2.6-3c17.15 1.85 34.26 4.1 51.34 6.51.12-.78.35-2.35.46-3.13-13.02-.81-25.93-2.96-38.89-4.44-6.14-.97-12.61-.79-18.35-3.46 2.79-1.21 5.76-.32 8.61.05 4.83.74 9.72.98 14.54 1.77.69-.47 1.38-.94 2.07-1.42l-3.61-.32c-3.81-2.99-7.74-5.83-11.96-8.23.62.14 1.86.44 2.48.59-1.05-3.62-1.63-7.35-2.02-11.08-.18-1.48 1.07-2.6 1.65-3.85.76-4.23-.75-8.56-3.81-11.54-5.93-3.27-14.6-1.53-17.93 4.59m-55.41 1.98c-7.85 3.74-10.71 12.68-11.98 20.65-.89 6.95-.52 14.57 3.39 20.63 2.24 3.68 7.22 2.4 10.73 1.88 5.29-3.02 7.93-9.08 9.37-14.76l1.29-.56c-2.82-2.33-6.61-2.25-10.03-2.86-.43-.77-.87-1.53-1.32-2.29.63-1.13 1.22-2.27 1.94-3.34 3.39-.47 6.85.58 10.25.87-1.52-4.36-.7-9.18-2.56-13.44-.85-2.56-2.75-4.54-4.7-6.31-2.13-.12-4.25-.29-6.38-.47m123.23 45.85c.61 5.12 1.28 10.81 5.02 14.7 3.05 3.58 8.32 2.43 12.38 1.91 6.23-2.9 8.88-9.96 10.96-16.05l.78-.23c-.49-.73-.98-1.45-1.47-2.17-3.59-.41-7.19-.86-10.73-1.61.15-2.21.28-4.59 1.99-6.23 3.88.12 7.69 1.05 11.52 1.61-1.35-6.54-.94-13.92-5.53-19.32-2.45-3.27-6.9-2.76-10.49-3.2-11.14 5.52-14.79 19.06-14.43 30.59m-84.42-15.62c-3.66 1.06-7.27-.97-10.94-.94-1.84.55-3.59 1.36-5.34 2.13-1.57 4.12-4.37 7.64-5.71 11.86 1.92 1.83 4.1 3.96 7 3.67 5.31-.67 11.09-.1 15.85-3 4.17-2.67 8.28-5.47 12.66-7.8 4.83-1.27 9.67-2.53 14.51-3.77-3.91-2.81-9.27-4.25-13.87-2.38-4.28 1.49-9.15 3.46-13.59 1.43 4.8-.8 9.98-1.27 13.92-4.45-2.17-.63-4.37-1.26-6.64-1.42-2.79 1.27-4.76 4.06-7.85 4.67m44.83 58.45c-1.17 2.91-4.54 3.64-7.12 4.81 1.65-2.21 4.33-3.09 6.63-4.41-3.44.65-6.73 1.99-10.23 2.38-3.73.75-7.41-.47-11.1-.89-2.25-.16-4.18-1.39-6.15-2.34-1.39 1.79-2.96 3.43-4.57 5.02.1 1.04 1.16 1.54 1.76 2.29 3.25 3.07 7.66 8.76 3.35 12.75-.13-3.9-1.62-7.5-3.98-10.56-1.52-.76-3-1.59-4.42-2.51-2.58-.08-5.18-.22-7.74.11-3.24 2.71-5.42 6.44-8.78 9.03-2.24 1.71-3.1 4.65-3.12 7.36.74 4.17 3.77 7.37 5.97 10.85 3.36 3.95 4.2 9.37 7.55 13.33 2.49 3.07 4.53 6.46 6.49 9.89-.38 1.68.2 3.85-1.29 5.09-3.31 3.33-6.31 6.98-10.01 9.91-2 1.3-2.85 4.51-.91 6.23 3.77 1.75 8.13 1 11.75-.73 1.91-1.27 3.31-3.18 5.3-4.35 3.77-1.97 8.1-2.38 11.89-4.3.13-3.48-1.48-6.6-3.82-9.06-3.54-3.64-4.64-8.69-6.66-13.18-1.53-3.42-1.76-7.32-3.73-10.55-1.76-2.96-3.78-5.75-5.63-8.64 3.34-2.58 7.54-3.24 11.49-4.33.86-2.29 1.62-4.61 2.3-6.95.98-3.59 4.36-5.7 7.44-7.33 5.06-2.21 11.13.25 14.45 4.39 3.52 3.71 9.08 8.31 6.52 14 1.58-1.54 4.03-2.63 4.4-5.05.74-3.02 2.71-5.9 1.98-9.13-.71-3.61-1.25-7.25-2.17-10.81-1.67-1.86-4.81-2.77-4.29-5.92-1.43.94-2.93 1.91-3.55 3.6m-15.07 9.23c-3.44 2.41-7.82 4.92-7.66 9.75-1.12 1.66-2.72 3.2-2.99 5.27.11 2.35 1.65 4.25 2.8 6.19 1.17 1.82 1.46 4.14 2.97 5.77 1.02 1.25 2.53 2.23 2.95 3.89 1.23 4.05 2.63 8.15 5.33 11.5-.81-4.39-3.31-8.21-4.2-12.56 3.58 4.07 5.04 9.45 6.53 14.55.81 4 1.98 8.16.88 12.23.46.07 1.36.21 1.81.28-3.09 3.21-4.81 7.34-7.17 11.04-3.96 2.8-8 5.74-10.35 10.13 4.63 1.62 9.68 3.71 14.53 1.65 4.37-1.02 6.33-5.39 9.65-7.93 2.15-1.64 4.07-3.55 5.91-5.53.06-2.3-.51-4.52-1.64-6.52l-1.2 3.2c-.29-.07-.87-.19-1.16-.25.84-6.31-1.67-12.44-1.85-18.73-.43-8.72-5.58-15.96-10.03-23.09 4.53-.68 9.17-1.98 12.3-5.56-1.81-5.23-5.63-9.27-9.52-13.04-2.15-1.93-5.14-2.21-7.89-2.24z"/><path d="M29.03 122.91c1.57-3.37 3.28-7.18 6.95-8.7-2 4.2-5.29 7.74-6.57 12.31-2.06 5.54-2.33 11.54-1.95 17.38.23 4.37 2.61 8.17 4.27 12.09-2.98-.98-4.17-4.06-4.93-6.78-2.33-8.69-1.06-18.03 2.23-26.3zM169.74 132.75c.96-1.67 2.74-2.38 4.56-2.69-1.79 2.67-4.09 4.98-5.67 7.79-4.31 8.14-5.25 17.65-3.93 26.67.71 3.8 2.85 7.07 4.24 10.62-4.13-1.45-4.93-6.07-6.01-9.73-1.9-11.16 0-23.41 6.81-32.66zM99.11 151.27c3.66 1.33 7.13 3.3 10 5.95-4.41.92-7.95-2.46-10-5.95zM108.84 158.18c2.83-2.12 4.47-6.09 8.09-6.94 3.57-.69 3.82 3.71 4.63 6.07-1.13.66-2.27 1.32-3.41 1.96 1.03-2.65 1.53-5.38-.98-7.37-3.09 1.93-3.86 7.15-8.33 6.28zM86.6 171.95c1.89-.59 3.75-1.28 5.64-1.86 0 3.73-.04 7.46-.85 11.13 1.27 2.42 2.94 4.67 3.82 7.28-.04 2.73-1.14 5.34-1.07 8.09-.2.09-.61.26-.81.35.05-.63.15-1.88.21-2.51-.72-7.73-3.6-15.04-4.1-22.83-1.12 1.94-2.08 3.98-3.3 5.86.52 1.71 1.04 3.42 1.51 5.15l-1.93-.08c-1.92-3.5-.54-7.2.88-10.58zM94.81 169.71c3.24.6 5 3.55 7.25 5.62 1.79 1.72 3.65 3.59 3.94 6.19-.52.02-1.55.05-2.07.07-1.8-4.84-6.54-7.54-9.12-11.88zM106.64 176.02c1.33-1.75 2.84-3.37 4.54-4.77 2.35 2.12-2.5 4.43-4.54 4.77zM108.55 181.94c1.74-2.61 5.19-2.94 7.89-4.01-1.29 3.15-4.95 3.61-7.89 4.01zM103.29 184.39c.55.09 1.67.29 2.23.38-.51 1.52-1.03 3.03-1.59 4.54-.3-1.63-.47-3.28-.64-4.92zM111.01 187.43c1.73-.8 3.46-1.61 5.24-2.3-1.11 2.36-3.35 4.39-6.16 3.67-1.68.21-1.73-1.56-2.21-2.68 1.05.42 2.09.86 3.13 1.31zM77.01 220.98c1.54-3.4 2.59-7.05 4.77-10.13-.95 4.62-1.33 10.34-5.79 13.07-3.62 1.12-7.79-.32-9.07-4.07 3.06 1.61 7.18 4.78 10.09 1.13zM81.28 225.14c1.16-3 2.82-5.99 5.87-7.41-1.24 2.96-3.5 5.31-5.87 7.41zM98.9 217.61c2.18.81 5.18 1.89 5.17 4.71-1.98-1.27-3.55-3.05-5.17-4.71zM104.3 230.81c2.38-5.54 8.89-4.07 13.52-5.82-1.65 2.79-5.01 2.78-7.81 3.38-1.97.64-3.74 1.78-5.71 2.44zM71.99 232.41c-2.91-.48-2.91-3.8-1.72-5.84.72 1.9 1.3 3.85 1.72 5.84zM100.32 227.79c1.26 2.37 1.92 4.98 2.69 7.54-1.03-.5-2.07-.99-3.1-1.48-.11-2.03-.02-4.07.41-6.06zM76.76 236.21c2.61 2.9 2.9 6.94 4.69 10.28 1.7 3.48 4.85 5.95 6.71 9.33-5.9-4.82-10.8-11.83-11.4-19.61zM107.37 240.59c.3-.1.91-.31 1.22-.41 1.52 4.06 3.65 7.96 4.33 12.3-1.7-4.03-3.43-8.05-5.55-11.89zM91.25 260.45c1.13.94 2.37 1.9 2.95 3.32.14 2.07-.42 4.1-.67 6.15-.41-.22-1.23-.65-1.64-.87.92-2.93.57-5.82-.64-8.6zM83.16 270.65c.83-3.31 2-6.52 3.39-9.63 1.37 3.69-1.66 6.69-3.39 9.63zM111.17 281.45c-.12-3.36 1.09-6.56 2.85-9.36-.47 3.23-1.32 6.46-2.85 9.36z"/></g></svg>